<svg xmlns="http://www.w3.org/2000/svg" viewBox="0 0 15.51 14.77">
<path class="cls-1" d="M15.51,9.39A.54.54,0,0,0,15,8.85H10.46a.54.54,0,0,0-.54.54.54.54,0,0,0,.54.54H15a.55.55,0,0,0,.54-.54Zm0,2.42a.54.54,0,0,0-.54-.54H10.46a.54.54,0,0,0,0,1.08H15a.54.54,0,0,0,.54-.54Zm0,2.43A.54.54,0,0,0,15,13.7H10.46a.54.54,0,1,0,0,1.07H15a.54.54,0,0,0,.54-.53Z"/><path class="cls-1" d="M8.29,13a.57.57,0,0,0-.57-.58h0a3.72,3.72,0,0,0-2.09.93l-.13.11-2-1.14,0-.18a3.78,3.78,0,0,0-.25-2.27,3.66,3.66,0,0,0-1.9-1.37l-.14-.06,0-.15a6.57,6.57,0,0,1-.09-1,6.57,6.57,0,0,1,.09-1l0-.15.14,0a3.78,3.78,0,0,0,1.9-1.37A3.74,3.74,0,0,0,3.54,2.5l0-.17,2-1.15.13.12a3.72,3.72,0,0,0,2.09.92A3.72,3.72,0,0,0,9.8,1.29l.13-.11,2,1.15,0,.17a3.74,3.74,0,0,0,.25,2.28A3.78,3.78,0,0,0,14,6.15l.14,0,0,.15c0,.13,0,.29.06.45a.57.57,0,0,0,1,.32.59.59,0,0,0,.15-.44c0-.36-.09-.67-.1-.76h0a1,1,0,0,0-.7-.79,3.05,3.05,0,0,1-1.47-.93,3.07,3.07,0,0,1-.06-1.74,1,1,0,0,0-.38-1h0L10.36.1l0,0A1,1,0,0,0,9.93,0a1,1,0,0,0-.68.26,3.1,3.1,0,0,1-1.54.81A3.15,3.15,0,0,1,6.17.26,1,1,0,0,0,5.5,0a1,1,0,0,0-.38.08h0L2.79,1.42l0,0h0a1,1,0,0,0-.37,1h0A3.05,3.05,0,0,1,2.31,4.2a3.06,3.06,0,0,1-1.48.93,1.06,1.06,0,0,0-.69.79A9.58,9.58,0,0,0,0,7.34,10,10,0,0,0,.14,8.73h0a1.08,1.08,0,0,0,.69.79h0a3.14,3.14,0,0,1,1.48.93,3.12,3.12,0,0,1,.06,1.73h0a1,1,0,0,0,.37,1h0l2.32,1.34,0,0a1,1,0,0,0,.38.08,1,1,0,0,0,.68-.26,3,3,0,0,1,1.53-.82h0a.58.58,0,0,0,.4-.16A.58.58,0,0,0,8.29,13Z"/><path class="cls-1" d="M7.6,10.57h0a3.25,3.25,0,1,1,3.35-3.74A.55.55,0,0,1,9.84,7,2.17,2.17,0,0,0,7.71,5.18a2.15,2.15,0,0,0-.09,4.3.55.55,0,0,1,0,1.09Z"/></svg>