<svg class="icon" viewBox="0 0 1024 1024" xmlns="http://www.w3.org/2000/svg" width="200" height="200"><path d="M951.283.004c40.39 0 73.158 32.768 73.158 73.159 0 26.965-14.79 50.29-36.579 62.975v741.657c0 3.243-.569 6.429-.967 9.614A72.817 72.817 0 0 1 951.283 1024c-40.391 0-73.102-32.768-73.102-73.159H146.65a73.159 73.159 0 0 1-146.261 0c0-27.363 15.246-50.972 37.546-63.488-.455-3.185-.967-6.371-.967-9.67V136.194A72.817 72.817 0 0 1 73.605.004c26.966 0 50.29 14.791 62.976 36.58h751.726A72.817 72.817 0 0 1 951.283.003zm-182.84 219.42H256.445v146.374h73.159v-73.216h146.26v402.26h-73.158V768h219.476v-73.159h-73.159V292.582h146.261v73.159h73.159V219.423z"/></svg>