<svg class="icon" viewBox="0 0 1024 1024" xmlns="http://www.w3.org/2000/svg" width="200" height="200"><path d="M854.856 265.07c5.486-5.486 10.972-10.972 14.629-18.36a119.954 119.954 0 0 0 9.216-132.46c-23.845-40.449-60.709-60.71-108.47-60.71H159.633c-11.045 0-23.918 0-33.134 3.658-25.746 7.46-47.836 22.235-64.366 42.423a123.319 123.319 0 0 0-25.746 73.508c0 34.962 12.873 64.366 36.79 86.455 79.068 75.337 156.307 154.478 231.644 229.888l1.829 1.829v253.805a48.713 48.713 0 0 0 20.26 34.963 35.109 35.109 0 0 0 33.134 0c14.629-7.315 23.845-22.09 23.845-42.35V478.427a52.663 52.663 0 0 0-14.629-38.619A3212.727 3212.727 0 0 1 258.815 323.95 6744.357 6744.357 0 0 0 142.957 204.36l-1.829-1.828H139.3l-3.657-3.658-3.657-3.657c-7.388-9.216-9.216-18.432-5.56-31.305 7.315-14.702 18.36-29.403 34.963-29.403h614.254c9.216 0 16.603 5.485 23.917 12.873 7.315 10.971 11.045 23.918 7.315 36.79-1.756 7.315-5.486 10.972-12.8 18.286-84.627 82.871-165.523 161.939-250.149 248.394-9.216 9.142-18.359 20.187-18.359 40.448v430.372c0 5.486 0 18.359 9.143 29.404v1.828s3.657 5.559 14.775 11.045c16.53 5.559 31.232 0 31.232 0l3.657-3.657c16.53-12.874 16.53-31.232 16.53-42.277V505.929l1.902-1.828c42.277-42.277 86.382-82.798 128.732-123.246 42.276-38.62 82.724-77.239 123.245-115.858"/><path d="M952.283 824.174H718.81a34.89 34.89 0 0 0-34.963 34.962v10.971c0 22.09 18.432 34.963 34.963 34.963h233.545a34.89 34.89 0 0 0 34.962-34.963v-10.971c-1.828-22.09-14.702-34.962-34.962-34.962m-.073-274.067H718.81a34.816 34.816 0 0 0-35.109 35.036v5.559c0 22.016 18.432 34.889 34.962 34.889H952.21a34.816 34.816 0 0 0 35.035-34.962v-5.56c-1.829-20.26-14.702-34.962-34.962-34.962m0 134.29H718.81a34.816 34.816 0 0 0-34.963 34.963v7.314c0 22.09 18.432 34.963 34.963 34.963h233.545a34.816 34.816 0 0 0 34.889-34.963v-7.314c-1.829-16.603-14.702-34.962-34.962-34.962"/></svg>