<svg t="1604911323574" class="icon" viewBox="0 0 1024 1024" version="1.1" xmlns="http://www.w3.org/2000/svg" p-id="8453" width="200" height="200"><path d="M854.856411 265.069714c5.485714-5.485714 10.971429-10.971429 14.628572-18.358857a119.954286 119.954286 0 0 0 9.216-132.461714c-23.844571-40.448-60.708571-60.708571-108.470857-60.708572H159.633554c-11.044571 0-23.917714 0-33.133714 3.657143C100.753554 64.658286 78.664411 79.433143 62.134126 99.620571A123.318857 123.318857 0 0 0 36.38784 173.129143c0 34.962286 12.873143 64.365714 36.790857 86.454857C152.246126 334.921143 229.484983 414.061714 304.822126 489.472l1.828571 1.828571v253.805715a48.713143 48.713143 0 0 0 20.260572 34.962285 35.108571 35.108571 0 0 0 33.133714 0c14.628571-7.314286 23.844571-22.089143 23.844571-42.349714V478.427429a52.662857 52.662857 0 0 0-14.628571-38.619429 3212.726857 3212.726857 0 0 1-110.445714-115.858286 6744.356571 6744.356571 0 0 0-115.858286-119.588571l-1.828572-1.828572h-1.828571l-3.657143-3.657142-3.657143-3.657143c-7.387429-9.216-9.216-18.432-5.558857-31.305143 7.314286-14.701714 18.358857-29.403429 34.962286-29.403429h614.253714c9.216 0 16.603429 5.485714 23.917714 12.873143 7.314286 10.971429 11.044571 23.917714 7.314286 36.790857-1.755429 7.314286-5.485714 10.971429-12.8 18.285715-84.626286 82.870857-165.522286 161.938286-250.148571 248.393142-9.216 9.142857-18.358857 20.187429-18.358857 40.448v430.372572c0 5.485714 0 18.358857 9.142857 29.403428v1.828572s3.657143 5.558857 14.774857 11.044571c16.530286 5.558857 31.232 0 31.232 0l3.657143-3.657143c16.530286-12.873143 16.530286-31.232 16.530285-42.276571V505.929143l1.901715-1.828572c42.276571-42.276571 86.381714-82.797714 128.731428-123.245714 42.276571-38.619429 82.724571-77.238857 123.245715-115.858286" fill="#000000" p-id="8454"></path><path d="M952.282697 824.173714H718.810697a34.889143 34.889143 0 0 0-34.962286 34.962286v10.971429c0 22.089143 18.432 34.962286 34.962286 34.962285h233.545143a34.889143 34.889143 0 0 0 34.962286-34.962285v-10.971429c-1.828571-22.089143-14.701714-34.962286-34.962286-34.962286M952.282697 550.107429H718.810697A34.816 34.816 0 0 0 683.702126 585.142857v5.558857c0 22.016 18.432 34.889143 34.962285 34.889143h233.545143A34.816 34.816 0 0 0 987.244983 590.628571v-5.558857c-1.828571-20.260571-14.701714-34.962286-34.962286-34.962285M952.282697 684.397714H718.810697a34.816 34.816 0 0 0-34.962286 34.962286v7.314286c0 22.089143 18.432 34.962286 34.962286 34.962285h233.545143A34.816 34.816 0 0 0 987.244983 726.674286v-7.314286c-1.828571-16.603429-14.701714-34.962286-34.962286-34.962286" fill="#000000" p-id="8455"></path></svg>