<svg class="icon" viewBox="0 0 1024 1024" xmlns="http://www.w3.org/2000/svg" width="200" height="200"><path d="M75.093 75.093h873.814a48.545 48.545 0 0 1 48.545 48.546V900.36a48.545 48.545 0 0 1-48.545 48.546H75.093a48.545 48.545 0 0 1-48.545-48.546V123.64a48.545 48.545 0 0 1 48.545-48.546zm194.181 606.815v-194.18l97.09 97.09 97.09-97.09v194.18h97.091V342.092h-97.09l-97.09 97.09-97.09-97.09h-97.091v339.816h97.09zm533.997-145.635V342.092h-97.09v194.18h-97.09l145.635 145.636L900.36 536.273h-97.09z"/></svg>